<svg xmlns="http://www.w3.org/2000/svg" xmlns:xlink="http://www.w3.org/1999/xlink" width="500" zoomAndPan="magnify" viewBox="0 0 375 374.999991" height="500" preserveAspectRatio="xMidYMid meet" version="1.0"><defs><clipPath id="d1af11fcd9"><path d="M 5.023438 4.742188 L 374.773438 4.742188 L 374.773438 374.492188 L 5.023438 374.492188 Z M 5.023438 4.742188 " clip-rule="nonzero"/></clipPath></defs><g clip-path="url(#d1af11fcd9)"><path fill="#ffffff" d="M 190.007812 4.742188 C 88.011719 4.742188 5.023438 87.734375 5.023438 189.730469 C 5.023438 291.726562 88.011719 374.714844 190.007812 374.714844 C 292.003906 374.714844 374.996094 291.726562 374.996094 189.730469 C 374.996094 87.734375 292.003906 4.742188 190.007812 4.742188 Z M 86.117188 313.683594 C 87.839844 257.804688 133.714844 212.851562 190.007812 212.851562 C 246.300781 212.851562 292.179688 257.804688 293.902344 313.683594 C 265.761719 337.300781 229.539062 351.59375 190.007812 351.59375 C 150.480469 351.59375 114.257812 337.300781 86.117188 313.683594 Z M 132.199219 131.921875 C 132.199219 100.046875 158.132812 74.113281 190.007812 74.113281 C 221.882812 74.113281 247.816406 100.046875 247.816406 131.921875 C 247.816406 163.796875 221.882812 189.730469 190.007812 189.730469 C 158.132812 189.730469 132.199219 163.796875 132.199219 131.921875 Z M 314.804688 292.6875 C 306.433594 249.46875 276.121094 214.089844 235.964844 198.445312 C 257.066406 183.832031 270.941406 159.472656 270.941406 131.921875 C 270.941406 87.304688 234.625 50.988281 190.007812 50.988281 C 145.390625 50.988281 109.078125 87.304688 109.078125 131.921875 C 109.078125 159.472656 122.949219 183.832031 144.050781 198.457031 C 103.898438 214.101562 73.582031 249.480469 65.199219 292.699219 C 42.066406 264.695312 28.144531 228.808594 28.144531 189.730469 C 28.144531 100.472656 100.753906 27.867188 190.007812 27.867188 C 279.265625 27.867188 351.871094 100.472656 351.871094 189.730469 C 351.871094 228.808594 337.953125 264.695312 314.804688 292.6875 Z M 314.804688 292.6875 " fill-opacity="1" fill-rule="nonzero"/></g></svg>